<mxfile host="65bd71144e">
    <diagram id="x3ueN1c26Wy-cPz62JJC" name="Page-1">
        <mxGraphModel dx="2499" dy="1162" grid="1" gridSize="10" guides="1" tooltips="1" connect="1" arrows="1" fold="1" page="1" pageScale="1" pageWidth="827" pageHeight="1169" background="#ffffff" math="0" shadow="0">
            <root>
                <mxCell id="0"/>
                <mxCell id="1" parent="0"/>
                <mxCell id="73" value="" style="rounded=0;whiteSpace=wrap;html=1;" parent="1" vertex="1">
                    <mxGeometry x="-110" y="10" width="1480" height="1020" as="geometry"/>
                </mxCell>
                <mxCell id="58" value="" style="sketch=0;outlineConnect=0;fontColor=#232F3E;gradientColor=none;strokeColor=#232F3E;fillColor=#ffffff;dashed=0;verticalLabelPosition=bottom;verticalAlign=top;align=center;html=1;fontSize=12;fontStyle=0;aspect=fixed;shape=mxgraph.aws4.resourceIcon;resIcon=mxgraph.aws4.cache_node;" parent="1" vertex="1">
                    <mxGeometry x="190" y="210" width="30" height="30" as="geometry"/>
                </mxCell>
                <mxCell id="57" value="" style="sketch=0;outlineConnect=0;fontColor=#232F3E;gradientColor=none;strokeColor=#232F3E;fillColor=#ffffff;dashed=0;verticalLabelPosition=bottom;verticalAlign=top;align=center;html=1;fontSize=12;fontStyle=0;aspect=fixed;shape=mxgraph.aws4.resourceIcon;resIcon=mxgraph.aws4.cache_node;" parent="1" vertex="1">
                    <mxGeometry x="200" y="585" width="30" height="30" as="geometry"/>
                </mxCell>
                <mxCell id="10" value="Client" style="text;html=1;align=center;verticalAlign=middle;resizable=0;points=[];autosize=1;strokeColor=none;fillColor=none;" parent="1" vertex="1">
                    <mxGeometry x="220" y="642.5" width="50" height="30" as="geometry"/>
                </mxCell>
                <mxCell id="11" value="Root Domain Name Server" style="text;html=1;align=center;verticalAlign=middle;resizable=0;points=[];autosize=1;strokeColor=none;fillColor=none;" parent="1" vertex="1">
                    <mxGeometry x="794.13" y="80" width="170" height="30" as="geometry"/>
                </mxCell>
                <mxCell id="12" value="Top-level Domain Name Server" style="text;html=1;align=center;verticalAlign=middle;resizable=0;points=[];autosize=1;strokeColor=none;fillColor=none;" parent="1" vertex="1">
                    <mxGeometry x="794.13" y="285" width="190" height="30" as="geometry"/>
                </mxCell>
                <mxCell id="13" value="Authorative Nameserver" style="text;html=1;align=center;verticalAlign=middle;resizable=0;points=[];autosize=1;strokeColor=none;fillColor=none;" parent="1" vertex="1">
                    <mxGeometry x="794.13" y="480" width="150" height="30" as="geometry"/>
                </mxCell>
                <mxCell id="16" value="" style="points=[];aspect=fixed;html=1;align=center;shadow=0;dashed=0;image;image=img/lib/allied_telesis/storage/Datacenter_Server_Rack.svg;sketch=0;fillColor=#0000FF;" parent="1" vertex="1">
                    <mxGeometry x="720" y="40" width="59.2" height="120" as="geometry"/>
                </mxCell>
                <mxCell id="17" value="" style="points=[];aspect=fixed;html=1;align=center;shadow=0;dashed=0;image;image=img/lib/allied_telesis/storage/Datacenter_Server_Rack.svg;sketch=0;fillColor=#0000FF;" parent="1" vertex="1">
                    <mxGeometry x="720" y="240" width="59.2" height="120" as="geometry"/>
                </mxCell>
                <mxCell id="19" value="" style="points=[];aspect=fixed;html=1;align=center;shadow=0;dashed=0;image;image=img/lib/allied_telesis/storage/Datacenter_Server_Rack.svg;sketch=0;fillColor=#0000FF;" parent="1" vertex="1">
                    <mxGeometry x="720" y="440" width="59.2" height="120" as="geometry"/>
                </mxCell>
                <mxCell id="20" value="" style="points=[[0.13,0.225,0],[0.5,0,0],[0.87,0.225,0],[0.885,0.5,0],[0.985,0.99,0],[0.5,1,0],[0.015,0.99,0],[0.115,0.5,0]];verticalLabelPosition=bottom;sketch=0;html=1;verticalAlign=top;aspect=fixed;align=center;pointerEvents=1;shape=mxgraph.cisco19.laptop_video_client;fillColor=#005073;strokeColor=none;" parent="1" vertex="1">
                    <mxGeometry x="220" y="600" width="50" height="42.5" as="geometry"/>
                </mxCell>
                <mxCell id="21" value="" style="points=[];aspect=fixed;html=1;align=center;shadow=0;dashed=0;image;image=img/lib/allied_telesis/storage/Datacenter_Server_Rack.svg;sketch=0;fillColor=#0000FF;" parent="1" vertex="1">
                    <mxGeometry x="212.93" y="230" width="64.13" height="130" as="geometry"/>
                </mxCell>
                <mxCell id="22" value="ISP Recursive&amp;nbsp; DNS Resolver" style="text;html=1;align=center;verticalAlign=middle;resizable=0;points=[];autosize=1;strokeColor=none;fillColor=none;" parent="1" vertex="1">
                    <mxGeometry x="20" y="280" width="180" height="30" as="geometry"/>
                </mxCell>
                <mxCell id="25" value="" style="endArrow=classic;html=1;fillColor=#dae8fc;strokeColor=#6c8ebf;" parent="1" edge="1">
                    <mxGeometry x="-0.7268" y="71" width="50" height="50" relative="1" as="geometry">
                        <mxPoint x="292" y="245" as="sourcePoint"/>
                        <mxPoint x="702" y="85" as="targetPoint"/>
                        <mxPoint as="offset"/>
                    </mxGeometry>
                </mxCell>
                <mxCell id="26" value="" style="endArrow=none;html=1;endFill=0;startArrow=classic;startFill=1;fillColor=#dae8fc;strokeColor=#6c8ebf;" parent="1" edge="1">
                    <mxGeometry width="50" height="50" relative="1" as="geometry">
                        <mxPoint x="290" y="264" as="sourcePoint"/>
                        <mxPoint x="710" y="94" as="targetPoint"/>
                        <mxPoint as="offset"/>
                    </mxGeometry>
                </mxCell>
                <mxCell id="27" value="" style="endArrow=classic;html=1;fillColor=#dae8fc;strokeColor=#6c8ebf;" parent="1" edge="1">
                    <mxGeometry width="50" height="50" relative="1" as="geometry">
                        <mxPoint x="290" y="296" as="sourcePoint"/>
                        <mxPoint x="710" y="296" as="targetPoint"/>
                        <mxPoint as="offset"/>
                    </mxGeometry>
                </mxCell>
                <mxCell id="28" value="" style="endArrow=none;html=1;endFill=0;startArrow=classic;startFill=1;fillColor=#dae8fc;strokeColor=#6c8ebf;" parent="1" edge="1">
                    <mxGeometry width="50" height="50" relative="1" as="geometry">
                        <mxPoint x="290" y="307" as="sourcePoint"/>
                        <mxPoint x="700" y="307" as="targetPoint"/>
                        <mxPoint as="offset"/>
                    </mxGeometry>
                </mxCell>
                <mxCell id="29" value="" style="endArrow=classic;html=1;fillColor=#dae8fc;strokeColor=#6c8ebf;" parent="1" edge="1">
                    <mxGeometry x="0.6268" y="52" width="50" height="50" relative="1" as="geometry">
                        <mxPoint x="290" y="350" as="sourcePoint"/>
                        <mxPoint x="700" y="490" as="targetPoint"/>
                        <mxPoint as="offset"/>
                    </mxGeometry>
                </mxCell>
                <mxCell id="30" value="" style="endArrow=none;html=1;endFill=0;startArrow=classic;startFill=1;fillColor=#dae8fc;strokeColor=#6c8ebf;" parent="1" edge="1">
                    <mxGeometry width="50" height="50" relative="1" as="geometry">
                        <mxPoint x="284" y="359" as="sourcePoint"/>
                        <mxPoint x="684" y="499" as="targetPoint"/>
                        <mxPoint as="offset"/>
                    </mxGeometry>
                </mxCell>
                <mxCell id="32" value="" style="endArrow=classic;html=1;fillColor=#dae8fc;strokeColor=#6c8ebf;" parent="1" edge="1">
                    <mxGeometry x="0.1598" y="2" width="50" height="50" relative="1" as="geometry">
                        <mxPoint x="230" y="560" as="sourcePoint"/>
                        <mxPoint x="230" y="380" as="targetPoint"/>
                        <mxPoint as="offset"/>
                    </mxGeometry>
                </mxCell>
                <mxCell id="33" value="" style="endArrow=none;html=1;endFill=0;startArrow=classic;startFill=1;fillColor=#dae8fc;strokeColor=#6c8ebf;" parent="1" edge="1">
                    <mxGeometry x="0.1598" y="2" width="50" height="50" relative="1" as="geometry">
                        <mxPoint x="250" y="562" as="sourcePoint"/>
                        <mxPoint x="250" y="382" as="targetPoint"/>
                        <mxPoint as="offset"/>
                    </mxGeometry>
                </mxCell>
                <mxCell id="34" value="1) my-loadbalancer-123456.elb.amazonaws.com" style="text;html=1;align=center;verticalAlign=middle;resizable=0;points=[];autosize=1;strokeColor=none;fillColor=none;" parent="1" vertex="1">
                    <mxGeometry x="-90" y="460" width="280" height="30" as="geometry"/>
                </mxCell>
                <mxCell id="45" value="Application Load Balancer" style="sketch=0;outlineConnect=0;fontColor=#232F3E;gradientColor=none;strokeColor=#ffffff;fillColor=#232F3E;dashed=0;verticalLabelPosition=middle;verticalAlign=bottom;align=center;html=1;whiteSpace=wrap;fontSize=10;fontStyle=1;spacing=3;shape=mxgraph.aws4.productIcon;prIcon=mxgraph.aws4.application_load_balancer;" parent="1" vertex="1">
                    <mxGeometry x="562.0699999999999" y="600" width="80" height="110" as="geometry"/>
                </mxCell>
                <mxCell id="46" value="" style="endArrow=classic;html=1;" parent="1" edge="1">
                    <mxGeometry width="50" height="50" relative="1" as="geometry">
                        <mxPoint x="280" y="630" as="sourcePoint"/>
                        <mxPoint x="540" y="630" as="targetPoint"/>
                    </mxGeometry>
                </mxCell>
                <mxCell id="47" value="2) my-loadbalancer-123456.elb.amazonaws.com" style="text;html=1;align=center;verticalAlign=middle;resizable=0;points=[];autosize=1;strokeColor=none;fillColor=none;" parent="1" vertex="1">
                    <mxGeometry x="240" y="120" width="280" height="30" as="geometry"/>
                </mxCell>
                <mxCell id="48" value="3) Name servers for &lt;b&gt;.com&lt;/b&gt; TLD" style="text;html=1;align=center;verticalAlign=middle;resizable=0;points=[];autosize=1;strokeColor=none;fillColor=none;" parent="1" vertex="1">
                    <mxGeometry x="505" y="180" width="190" height="30" as="geometry"/>
                </mxCell>
                <mxCell id="49" value="4)&amp;nbsp;&lt;span style=&quot;&quot;&gt;my-loadbalancer-123456.elb.amazonaws.com&lt;/span&gt;" style="text;html=1;strokeColor=none;fillColor=none;align=center;verticalAlign=middle;whiteSpace=wrap;rounded=0;sketch=0;" parent="1" vertex="1">
                    <mxGeometry x="350" y="268" width="320" height="30" as="geometry"/>
                </mxCell>
                <mxCell id="50" value="5) Name servers for &lt;b&gt;amazonaws.com&lt;/b&gt;" style="text;html=1;strokeColor=none;fillColor=none;align=center;verticalAlign=middle;whiteSpace=wrap;rounded=0;sketch=0;" parent="1" vertex="1">
                    <mxGeometry x="322.07" y="315" width="320" height="30" as="geometry"/>
                </mxCell>
                <mxCell id="51" value="&lt;span style=&quot;border-color: var(--border-color); text-align: center;&quot;&gt;6)&amp;nbsp;&lt;/span&gt;&lt;span style=&quot;border-color: var(--border-color); text-align: center;&quot;&gt;my-loadbalancer-123456.elb.amazonaws.com&lt;/span&gt;" style="text;whiteSpace=wrap;html=1;" parent="1" vertex="1">
                    <mxGeometry x="500" y="390" width="290" height="40" as="geometry"/>
                </mxCell>
                <mxCell id="52" value="&lt;div style=&quot;text-align: center;&quot;&gt;&lt;span style=&quot;background-color: initial;&quot;&gt;7) 3.235.75.12, 52.203.64.25, 34.207.210.123&lt;/span&gt;&lt;/div&gt;" style="text;whiteSpace=wrap;html=1;" parent="1" vertex="1">
                    <mxGeometry x="290" y="455" width="290" height="40" as="geometry"/>
                </mxCell>
                <mxCell id="54" value="&lt;table style=&quot;caret-color: rgb(0, 0, 0); color: rgb(0, 0, 0); font-style: normal; font-variant-caps: normal; font-weight: 400; letter-spacing: normal; text-align: start; text-transform: none; word-spacing: 0px; -webkit-text-stroke-width: 0px; text-decoration: none;&quot;&gt;&lt;thead&gt;&lt;tr&gt;&lt;th&gt;&lt;strong&gt;Availability Zone&lt;/strong&gt;&lt;/th&gt;&lt;th&gt;&lt;strong&gt;Load Balancer Public IP Address&lt;/strong&gt;&lt;/th&gt;&lt;/tr&gt;&lt;/thead&gt;&lt;/table&gt;&lt;table style=&quot;caret-color: rgb(0, 0, 0); color: rgb(0, 0, 0); font-style: normal; font-variant-caps: normal; font-weight: 400; letter-spacing: normal; text-align: start; text-transform: none; word-spacing: 0px; -webkit-text-stroke-width: 0px; text-decoration: none;&quot;&gt;&lt;tbody&gt;&lt;tr&gt;&lt;td&gt;AZ-1 (e.g., us-east-1a)&lt;/td&gt;&lt;td&gt;&lt;code&gt;3.235.75.12&lt;/code&gt;&lt;/td&gt;&lt;/tr&gt;&lt;/tbody&gt;&lt;/table&gt;&lt;table style=&quot;caret-color: rgb(0, 0, 0); color: rgb(0, 0, 0); font-style: normal; font-variant-caps: normal; font-weight: 400; letter-spacing: normal; text-align: start; text-transform: none; word-spacing: 0px; -webkit-text-stroke-width: 0px; text-decoration: none;&quot;&gt;&lt;tbody&gt;&lt;tr&gt;&lt;td&gt;AZ-2 (e.g., us-east-1b)&lt;/td&gt;&lt;td&gt;&lt;code&gt;52.203.64.25&lt;/code&gt;&lt;/td&gt;&lt;/tr&gt;&lt;/tbody&gt;&lt;/table&gt;&lt;table style=&quot;caret-color: rgb(0, 0, 0); color: rgb(0, 0, 0); font-style: normal; font-variant-caps: normal; font-weight: 400; letter-spacing: normal; text-align: start; text-transform: none; word-spacing: 0px; -webkit-text-stroke-width: 0px; text-decoration: none;&quot;&gt;&lt;tbody&gt;&lt;tr&gt;&lt;td&gt;AZ-3 (e.g., us-east-1c)&lt;/td&gt;&lt;td&gt;&lt;code&gt;34.207.210.123&lt;/code&gt;&lt;/td&gt;&lt;/tr&gt;&lt;/tbody&gt;&lt;/table&gt;" style="text;whiteSpace=wrap;html=1;" parent="1" vertex="1">
                    <mxGeometry x="414" y="740" width="330" height="110" as="geometry"/>
                </mxCell>
                <mxCell id="55" value="&lt;div style=&quot;text-align: center;&quot;&gt;&lt;span style=&quot;background-color: initial;&quot;&gt;8) 52.203.64.25, 34.207.210.123,&amp;nbsp;&lt;/span&gt;&lt;/div&gt;&lt;span style=&quot;text-align: center;&quot;&gt;3.235.75.12&lt;/span&gt;&lt;span style=&quot;text-align: center;&quot;&gt;&amp;nbsp;&lt;/span&gt;" style="text;whiteSpace=wrap;html=1;" parent="1" vertex="1">
                    <mxGeometry x="269" y="515" width="211" height="55" as="geometry"/>
                </mxCell>
                <mxCell id="56" value="9) Request to&amp;nbsp;&lt;span style=&quot;&quot;&gt;52.203.64.25&lt;/span&gt;" style="text;html=1;align=center;verticalAlign=middle;resizable=0;points=[];autosize=1;strokeColor=none;fillColor=none;" parent="1" vertex="1">
                    <mxGeometry x="305" y="600" width="170" height="30" as="geometry"/>
                </mxCell>
                <mxCell id="59" value="" style="sketch=0;outlineConnect=0;fontColor=#232F3E;gradientColor=none;strokeColor=#232F3E;fillColor=#ffffff;dashed=0;verticalLabelPosition=bottom;verticalAlign=top;align=center;html=1;fontSize=12;fontStyle=0;aspect=fixed;shape=mxgraph.aws4.resourceIcon;resIcon=mxgraph.aws4.cache_node;" parent="1" vertex="1">
                    <mxGeometry x="764.13" y="20" width="30" height="30" as="geometry"/>
                </mxCell>
                <mxCell id="60" value="" style="sketch=0;outlineConnect=0;fontColor=#232F3E;gradientColor=none;strokeColor=#232F3E;fillColor=#ffffff;dashed=0;verticalLabelPosition=bottom;verticalAlign=top;align=center;html=1;fontSize=12;fontStyle=0;aspect=fixed;shape=mxgraph.aws4.resourceIcon;resIcon=mxgraph.aws4.cache_node;" parent="1" vertex="1">
                    <mxGeometry x="764.13" y="220" width="30" height="30" as="geometry"/>
                </mxCell>
                <mxCell id="61" value="" style="sketch=0;outlineConnect=0;fontColor=#232F3E;gradientColor=none;strokeColor=#232F3E;fillColor=#ffffff;dashed=0;verticalLabelPosition=bottom;verticalAlign=top;align=center;html=1;fontSize=12;fontStyle=0;aspect=fixed;shape=mxgraph.aws4.resourceIcon;resIcon=mxgraph.aws4.cache_node;" parent="1" vertex="1">
                    <mxGeometry x="764.13" y="420" width="30" height="30" as="geometry"/>
                </mxCell>
                <mxCell id="62" value="&lt;span style=&quot;caret-color: rgb(0, 0, 0); color: rgb(0, 0, 0); font-style: normal; font-variant-caps: normal; letter-spacing: normal; text-align: start; text-indent: 0px; text-transform: none; word-spacing: 0px; -webkit-text-stroke-width: 0px; text-decoration: none; float: none; display: inline !important;&quot;&gt;&lt;font style=&quot;font-size: 12px;&quot;&gt;&lt;b&gt;Type: &lt;/b&gt;CNAME &lt;br&gt;&lt;b&gt;Name&lt;/b&gt;: www.example.com&lt;br&gt;&lt;b&gt;Value:&lt;/b&gt; my-loadbalancer-123456.elb.amazonaws.com TTL: 300 (5 minutes)&lt;/font&gt;&lt;/span&gt;" style="text;whiteSpace=wrap;html=1;" parent="1" vertex="1">
                    <mxGeometry x="-46.93" y="740" width="417.93" height="60" as="geometry"/>
                </mxCell>
                <mxCell id="63" value="ALB Instances deployed in each AZ using the IP addresses associated with the my-loadbalancer-123456.elb.amazonaws.com records. Authorative Nameserver will be updated by Amazon if/when instances re-allocated&lt;br&gt;&amp;nbsp;" style="text;html=1;strokeColor=none;fillColor=none;align=center;verticalAlign=middle;whiteSpace=wrap;rounded=0;sketch=0;fontFamily=Helvetica;fontSize=12;" parent="1" vertex="1">
                    <mxGeometry x="1030" y="760" width="60" height="30" as="geometry"/>
                </mxCell>
                <mxCell id="64" value="" style="endArrow=classic;html=1;fontFamily=Helvetica;fontSize=12;dashed=1;fillColor=#e1d5e7;strokeColor=#9673a6;" parent="1" edge="1">
                    <mxGeometry width="50" height="50" relative="1" as="geometry">
                        <mxPoint x="960" y="760" as="sourcePoint"/>
                        <mxPoint x="650" y="640" as="targetPoint"/>
                    </mxGeometry>
                </mxCell>
                <mxCell id="67" value="" style="endArrow=classic;html=1;fontFamily=Helvetica;fontSize=12;dashed=1;entryX=1;entryY=0.5;entryDx=0;entryDy=0;fillColor=#e1d5e7;strokeColor=#9673a6;" parent="1" edge="1">
                    <mxGeometry width="50" height="50" relative="1" as="geometry">
                        <mxPoint x="959" y="633.5" as="sourcePoint"/>
                        <mxPoint x="469" y="533.5" as="targetPoint"/>
                    </mxGeometry>
                </mxCell>
                <mxCell id="69" value="&lt;span style=&quot;color: rgb(0, 0, 0); font-family: Helvetica; font-size: 12px; font-style: normal; font-variant-ligatures: normal; font-variant-caps: normal; font-weight: 400; letter-spacing: normal; orphans: 2; text-align: center; text-indent: 0px; text-transform: none; widows: 2; word-spacing: 0px; -webkit-text-stroke-width: 0px; background-color: rgb(251, 251, 251); text-decoration-thickness: initial; text-decoration-style: initial; text-decoration-color: initial; float: none; display: inline !important;&quot;&gt;IP address re-ordering by the ISP to support load balancing across ALB&lt;/span&gt;" style="text;whiteSpace=wrap;html=1;fontSize=12;fontFamily=Helvetica;" parent="1" vertex="1">
                    <mxGeometry x="970" y="620" width="385.87" height="40" as="geometry"/>
                </mxCell>
                <mxCell id="70" value="Focusing example on loadbalancer lookup, however, CNAME record would previously need updating.&lt;br&gt;&amp;nbsp;" style="text;html=1;strokeColor=none;fillColor=none;align=center;verticalAlign=middle;whiteSpace=wrap;rounded=0;sketch=0;fontFamily=Helvetica;fontSize=12;" parent="1" vertex="1">
                    <mxGeometry x="380" y="960" width="160" height="30" as="geometry"/>
                </mxCell>
                <mxCell id="71" value="" style="endArrow=classic;html=1;fontFamily=Helvetica;fontSize=12;dashed=1;fillColor=#e1d5e7;strokeColor=#9673a6;" parent="1" edge="1">
                    <mxGeometry width="50" height="50" relative="1" as="geometry">
                        <mxPoint x="370" y="960" as="sourcePoint"/>
                        <mxPoint x="70" y="810" as="targetPoint"/>
                    </mxGeometry>
                </mxCell>
                <mxCell id="72" style="edgeStyle=none;html=1;dashed=1;fontFamily=Helvetica;fontSize=12;startArrow=classic;startFill=1;endArrow=none;endFill=0;" parent="1" source="63" target="63" edge="1">
                    <mxGeometry relative="1" as="geometry"/>
                </mxCell>
            </root>
        </mxGraphModel>
    </diagram>
</mxfile>